<?xml version="1.0" encoding="UTF-8"?>
<svg xmlns="http://www.w3.org/2000/svg" viewBox="0 0 720.51057 589.997">
  <defs>
    <style>
      .cls-1, .cls-2 {
        fill: #eeb300;
        stroke: #eeb300;
      }

      .cls-1, .cls-2, .cls-3, .cls-4, .cls-5, .cls-6 {
        stroke-miterlimit: 10;
      }

      .cls-2, .cls-7 {
        font-family: Skia-Regular, Skia;
        font-size: 12px;
        font-variation-settings: 'wght' 1, 'wdth' 1;
      }

      .cls-3 {
        stroke: #e48800;
        stroke-width: 2px;
      }

      .cls-3, .cls-4, .cls-6 {
        fill: none;
      }

      .cls-4, .cls-5 {
        stroke: #000;
        stroke-width: 8px;
      }

      .cls-6 {
        stroke: #c90;
        stroke-width: 5px;
      }
    </style>
  </defs>
  <g id="Layer_2" data-name="Layer 2">
    <path class="cls-4" d="M487.72557,134.06399c-36.4303,40.00836-75.78821,106.689-139.65326,138.11072-12.20288.68695-32.17322-3.2168-54.93152-11.10077-46.18872-16.00076-103.8609-48.39581-131.38861-92.08051-10.96362-17.39859-25.58484-24.84256-50.47717-49.73486-7.42316-7.42313-42.33624,25.21408-42.33624,25.21408-7.48126,14.63724-1.05609,41.54318,11.15918,82.42105,26.12775,87.43518,16.60492,129.10358,24.49622,141.03918,11.18365,16.91528,60.78754,8.64972,156.62775,14.84619,91.20764,5.89697,110.93494,6.45795,198.19714,63.0965,18.87366-28.8255,35.53979,46.56921,89.81958,31.91937,18.50378-51.31201-26.81323-62.76251-13.69812-125.14862,11.75232-55.90363,37.08093-87.49799,58.23682-105.71021-23.75806-27.32578-91.55737-99.53503-106.05176-112.87213Z"/>
    <line class="cls-4" x1="275.97621" y1="296.78988" x2="293.14081" y2="261.07394"/>
    <line class="cls-4" x1="269.12577" y1="329.46109" x2="261.2219" y2="382.77908"/>
    <path class="cls-4" d="M94.41638,223.58016c1.48652,2.8676,16.61096,11.83168,36.23151,2.26068,8.77342-5.10453,14.39173-15.90997,8.44507-23.03192-7.807-9.34996-21.09612-11.35656-33.80821-3.28833-9.0509,5.74451-15.15408,15.79215-10.86836,24.05957Z"/>
    <line class="cls-4" x1="164.29063" y1="172.86404" x2="157.20127" y2="185.59118"/>
    <line class="cls-4" x1="143.56874" y1="199.04204" x2="139.09296" y2="202.80892"/>
    <line class="cls-4" x1="94.41636" y1="223.58016" x2="80.09794" y2="226.8937"/>
    <path class="cls-4" d="M525.39952,172.66226l-20.26611,18.7627,22.9303,21.62,19.45605-16.84879c7.32544-6.59579,9.07894-7.62211,5.90407-10.91148-2.2913-2.37394-6.32977,2.43149-10.4878,5.31615l-11.38115-11.42678c3.38456-2.84438,6.8143-7.27419,4.01891-10.19249-1.68917-1.76344-4.17832-.77242-10.17427,3.68069Z"/>
    <polygon class="cls-5" points="497.46034 431.39289 521.9282 443.67839 524.83297 439.03076 533.56786 443.40217 530.77905 448.47924 538.54398 452.74448 533.19894 464.00317 523.83437 459.55736 521.06051 464.77223 511.51841 459.2245 514.51419 454.00963 491.8588 441.71425 497.46034 431.39289"/>
    <polygon class="cls-5" points="459.28141 258.50013 437.56439 291.64665 418.95365 281.39713 442.84332 247.73017 459.28141 258.50013"/>
    <rect class="cls-5" x="374.53435" y="296.78988" width="39.71747" height="21.45602"/>
    <path class="cls-5" d="M382.11421,236.30226c1.5448-1.71048,4.44135-1.80978,6.25287,0,.23218.30664.92651,1.30414.92651,2.75861s-.69434,2.45193-.92651,2.75858c-1.81152,1.80978-4.70807,1.71048-6.25287,0-1.37677-1.52438-1.37677-3.9928,0-5.51718Z"/>
    <path class="cls-5" d="M484.65216,125.78822c1.5448-1.71048,4.44135-1.80978,6.25287,0,.23218.30664.92651,1.30414.92651,2.75861s-.69434,2.45193-.92651,2.75858c-1.81152,1.80978-4.70807,1.71048-6.25287,0-1.37677-1.52438-1.37677-3.9928,0-5.51718Z"/>
    <path class="cls-5" d="M528.95481,169.47708c1.5448-1.71048,4.44135-1.80978,6.25287,0,.23218.30664.92651,1.30414.92651,2.75861s-.69434,2.45193-.92651,2.75858c-1.81152,1.80978-4.70807,1.71048-6.25287,0-1.37677-1.52438-1.37677-3.9928,0-5.51718Z"/>
    <path class="cls-5" d="M547.75753,187.84224c1.5448-1.71048,4.44135-1.80978,6.25287,0,.23218.30664.92651,1.30414.92651,2.75861s-.69434,2.45193-.92651,2.75858c-1.81152,1.80978-4.70807,1.71048-6.25287,0-1.37677-1.52438-1.37677-3.9928,0-5.51718Z"/>
    <path class="cls-5" d="M593.88339,244.97158c1.5448-1.71048,4.44135-1.80978,6.25287,0,.23218.30664.92651,1.30414.92651,2.75861s-.69434,2.45193-.92651,2.75858c-1.81152,1.80978-4.70807,1.71048-6.25287,0-1.37677-1.52438-1.37677-3.9928,0-5.51718Z"/>
    <path class="cls-5" d="M564.17223,278.93191c1.5448-1.71048,4.44135-1.80978,6.25287,0,.23218.30664.92651,1.30414.92651,2.75861s-.69434,2.45193-.92651,2.75858c-1.81152,1.80978-4.70807,1.71048-6.25287,0-1.37677-1.52438-1.37677-3.9928,0-5.51718Z"/>
    <path class="cls-5" d="M549.07976,312.93427c1.5448-1.71048,4.44135-1.80978,6.25287,0,.23218.30664.92651,1.30414.92651,2.75861s-.69434,2.45193-.92651,2.75858c-1.81152,1.80978-4.70807,1.71048-6.25287,0-1.37677-1.52438-1.37677-3.9928,0-5.51718Z"/>
    <path class="cls-5" d="M539.57656,351.19367c1.5448-1.71048,4.44135-1.80978,6.25287,0,.23218.30664.92651,1.30414.92651,2.75861s-.69434,2.45193-.92651,2.75858c-1.81152,1.80978-4.70807,1.71048-6.25287,0-1.37677-1.52438-1.37677-3.9928,0-5.51718Z"/>
    <path class="cls-5" d="M455.72521,445.32397c1.5448-1.71048,4.44135-1.80978,6.25287,0,.23218.30664.92651,1.30414.92651,2.75861s-.69434,2.45193-.92651,2.75858c-1.81152,1.80978-4.70807,1.71048-6.25287,0-1.37677-1.52438-1.37677-3.9928,0-5.51718Z"/>
    <path class="cls-5" d="M407.66829,419.6611c1.5448-1.71048,4.44135-1.80978,6.25287,0,.23218.30664.92651,1.30414.92651,2.75861s-.69434,2.45193-.92651,2.75858c-1.81152,1.80978-4.70807,1.71048-6.25287,0-1.37677-1.52438-1.37677-3.9928,0-5.51718Z"/>
    <path class="cls-5" d="M353.12749,395.72919c1.5448-1.71048,4.44135-1.80978,6.25287,0,.23218.30664.92651,1.30414.92651,2.75861s-.69434,2.45193-.92651,2.75858c-1.81152,1.80978-4.70807,1.71048-6.25287,0-1.37677-1.52438-1.37677-3.9928,0-5.51718Z"/>
    <path class="cls-5" d="M305.45197,387.57129c1.5448-1.71048,4.44135-1.80978,6.25287,0,.23218.30664.92651,1.30414.92651,2.75861s-.69434,2.45193-.92651,2.75858c-1.81152,1.80978-4.70807,1.71048-6.25287,0-1.37677-1.52438-1.37677-3.9928,0-5.51718Z"/>
    <path class="cls-5" d="M260.06488,384.09944c1.5448-1.71048,4.44135-1.80978,6.25287,0,.23218.30664.92651,1.30414.92651,2.75861s-.69434,2.45193-.92651,2.75858c-1.81152,1.80978-4.70807,1.71048-6.25287,0-1.37677-1.52438-1.37677-3.9928,0-5.51718Z"/>
    <path class="cls-5" d="M224.39182,384.09944c1.5448-1.71048,4.44135-1.80978,6.25287,0,.23218.30664.92651,1.30414.92651,2.75861s-.69434,2.45193-.92651,2.75858c-1.81152,1.80978-4.70807,1.71048-6.25287,0-1.37677-1.52438-1.37677-3.9928,0-5.51718Z"/>
    <path class="cls-5" d="M183.40264,383.49234c1.5448-1.71048,4.44135-1.80978,6.25287,0,.23218.30664.92651,1.30414.92651,2.75861s-.69434,2.45193-.92651,2.75858c-1.81152,1.80978-4.70807,1.71048-6.25287,0-1.37677-1.52438-1.37677-3.9928,0-5.51718Z"/>
    <path class="cls-5" d="M147.16925,381.61724c1.5448-1.71048,4.44135-1.80978,6.25287,0,.23218.30664.92651,1.30414.92651,2.75861s-.69434,2.45193-.92651,2.75858c-1.81152,1.80978-4.70807,1.71048-6.25287,0-1.37677-1.52438-1.37677-3.9928,0-5.51718Z"/>
    <path class="cls-5" d="M98.73092,370.55652c1.5448-1.71048,4.44135-1.80978,6.25287,0,.23218.30664.92651,1.30414.92651,2.75861s-.69434,2.45193-.92651,2.75858c-1.81152,1.80978-4.70807,1.71048-6.25287,0-1.37677-1.52438-1.37677-3.9928,0-5.51718Z"/>
    <path class="cls-5" d="M91.34296,315.34168c1.5448-1.71048,4.44135-1.80978,6.25287,0,.23218.30664.92651,1.30414.92651,2.75861s-.69434,2.45193-.92651,2.75858c-1.81152,1.80978-4.70807,1.71048-6.25287,0-1.37677-1.52438-1.37677-3.9928,0-5.51718Z"/>
    <path class="cls-5" d="M81.13052,264.52616c1.5448-1.71048,4.44135-1.80978,6.25287,0,.23218.30664.92651,1.30414.92651,2.75861s-.69434,2.45193-.92651,2.75858c-1.81152,1.80978-4.70807,1.71048-6.25287,0-1.37677-1.52438-1.37677-3.9928,0-5.51718Z"/>
    <path class="cls-5" d="M68.14054,222.69571c2.35086-2.60299,6.75879-2.75411,9.51555,0,.35333.46664,1.40996,1.98462,1.40996,4.19802s-1.05663,3.73133-1.40996,4.19797c-2.75676,2.75411-7.16469,2.60299-9.51555,0-2.09515-2.31979-2.09515-6.0762,0-8.39599Z"/>
    <path class="cls-5" d="M340.9266,265.85414c1.5448-1.71048,4.44135-1.80978,6.25287,0,.23218.30664.92651,1.30414.92651,2.75861s-.69434,2.45193-.92651,2.75858c-1.81152,1.80978-4.70807,1.71048-6.25287,0-1.37677-1.52438-1.37677-3.9928,0-5.51718Z"/>
    <path class="cls-5" d="M54.61176,142.65181c2.35086-2.60299,6.75879-2.75411,9.51555,0,.35333.46664,1.40996,1.98462,1.40996,4.19802s-1.05663,3.73133-1.40996,4.19797c-2.75676,2.75411-7.16469,2.60299-9.51555,0-2.09515-2.31979-2.09515-6.0762,0-8.39599Z"/>
    <path class="cls-5" d="M110.8578,112.43212c2.35086-2.60299,6.75879-2.75411,9.51555,0,.35333.46664,1.40996,1.98462,1.40996,4.19802s-1.05663,3.73133-1.40996,4.19797c-2.75676,2.75411-7.16469,2.60299-9.51555,0-2.09515-2.31979-2.09515-6.0762,0-8.39599Z"/>
    <path class="cls-5" d="M162.68696,165.90746c2.35086-2.60299,6.75879-2.75411,9.51555,0,.35333.46664,1.40996,1.98462,1.40996,4.19802s-1.05663,3.73133-1.40996,4.19797c-2.75676,2.75411-7.16469,2.60299-9.51555,0-2.09515-2.31979-2.09515-6.0762,0-8.39599Z"/>
    <path class="cls-5" d="M292.10283,254.2364c1.5448-1.71048,4.44135-1.80978,6.25287,0,.23218.30664.92651,1.30414.92651,2.75861s-.69434,2.45193-.92651,2.75858c-1.81152,1.80978-4.70807,1.71048-6.25287,0-1.37677-1.52438-1.37677-3.9928,0-5.51718Z"/>
    <path class="cls-5" d="M415.88025,204.12928c1.5448-1.71048,4.44135-1.80978,6.25287,0,.23218.30664.92651,1.30414.92651,2.75861s-.69434,2.45193-.92651,2.75858c-1.81152,1.80978-4.70807,1.71048-6.25287,0-1.37677-1.52438-1.37677-3.9928,0-5.51718Z"/>
    <path class="cls-5" d="M451.61923,165.21851c1.5448-1.71048,4.44135-1.80978,6.25287,0,.23218.30664.92651,1.30414.92651,2.75861s-.69434,2.45193-.92651,2.75858c-1.81152,1.80978-4.70807,1.71048-6.25287,0-1.37677-1.52438-1.37677-3.9928,0-5.51718Z"/>
  </g>
  <g id="Layer_3" data-name="Layer 3">
    <path class="cls-6" d="M139.09294,30.18688c86.38507,128.96075,156.08331,210.92307,173.53839,222.72916,17.20459,9.9711,70.41498,8.1579,85.60095-5.18585,8.80249-7.73462,17.95032-10.54877,32.86633-12.74829,27.11304-3.99811,41.64355,9.01117,52.521,0,10.31262-8.54327-13.67896-11.32507,27.9115-32.17297,9.39075-4.70728,36.52661-27.35062,41.59045-32.25421,58.67224-56.81555,161.93848-156.14789,165.2478-161.63901"/>
    <path class="cls-6" d="M452.11619,587.20205c-28.96484,3.40082-85.03766-23.39465-96.82208-39.81189-15.42151-21.48425-16.54327-37.35559-30.68231-56.65454-40.05328-54.67035-113.93231-56.5271-113.8689-79.55035.0434-15.74042,66.58453-17.56781,129.15112,0,72.27795,20.29462,115.44202,59.32703,127.35754,53.58698,6.40247-3.08429,13.45801-8.28308-9.95923-33.37933-16.69397-17.89093-25.97144-23.50726-27.50842-47.01709-2.88049-44.06,15.59924-102.02631,17.7478-105.44391,9.22351-14.67114,36.08789-35.2807,36.08789-43.95001"/>
  </g>
  <g id="Layer_4" data-name="Layer 4">
    <path class="cls-3" d="M224.43873,401.46435c-4.05681-12.23686-86.83063.75122-131.42215-14.60629-27.47931-9.464-49.49207-199.98881-49.7412-240.00826-.13934-22.38194,39.34981-39.82245,66.01106-44.2028,16.42404-2.69841,19.30092,12.27561,40.95621,33.03336,83.89645,80.41919,88.03295,86.40851,106.32,94.75672,29.42822,13.43427,51.96272,15.17247,56.96215,36.84767.50697,2.19797,1.97875,14.37896,1.03199,25.06634-.70704,7.98134-4.0052,24.82706,2.16396,25.74917,16.10626,2.40743,50.65983,17.14343,64.36089,20.04118,7.74698,1.63847,1.71667-16.23496,8.21195-18.36963,19.1263-6.28585,41.19873,2.62916,67.99877,19.52869,26.70496,16.83954,67.1448,34.0146,74.73581,38.09356,3.7892,2.03609,13.89339.53763,18.80273-8.1579,8.62903-15.28391,26.34487-78.28087,57.06068-112.24118,38.80634-42.90544,52.15901-57.95294,53.8977-97.93286,1.11863-25.72216,11.65343-68.91554-14.48866-88.09078-44.77307-32.84106-158.50682,35.10173-218.56944,92.9268-32.74585,31.52594-61.04396,73.89929-74.68172,95.3649"/>
    <path class="cls-3" d="M550.83091,369.23617c-8.18096,36.13242,2.40499,49.57093,5.42822,57.26245,6.88051,17.50499,6.88051,33.48682,0,53.20532-10.88241,31.18733-77.59916-15.85518-83.66874-19.16005"/>
    <g>
      <path class="cls-1" d="M567.68858,177.53421c0,.57031-.18457,1.08594-.55273,1.54688-.36914.46094-.86133.77344-1.47754.9375-.26562.07031-.55469.12109-.86914.15234-.31348.03125-.66406.04688-1.0498.04688l.01172,2.47852h-.9668c.00391-.23438.00977-.66895.01758-1.30371s.01172-1.61621.01172-2.94434c0-.42188-.00195-.93945-.00586-1.55273s-.01172-1.29492-.02344-2.04492c.16797-.00391.33301-.00586.49414-.00586h.39551c.6748,0,1.24902.04297,1.72363.12891.47363.08594.87305.23242,1.19629.43945.35547.22266.62598.5127.81348.87012s.28125.77441.28125,1.25098ZM566.69249,177.53421c0-.40234-.0918-.74512-.27539-1.02832s-.46484-.50684-.84375-.6709c-.23438-.10156-.48828-.16504-.76172-.19043s-.55469-.03809-.84375-.03809h-.2168c0,.04297-.00391.33594-.01172.87891s-.01172.97266-.01172,1.28906c0,.28906.00098.63086.00293,1.02539s.00293.61914.00293.67383h.23438c.26172,0,.54004-.01758.83496-.05273s.54785-.09961.75879-.19336c.36719-.15625.64746-.37305.84082-.65039s.29004-.625.29004-1.04297Z"/>
      <path class="cls-1" d="M574.47959,179.73147c0,.45312-.08105.88672-.24316,1.30078s-.39551.76758-.7002,1.06055c-.25781.24609-.54395.43359-.8584.5625s-.6709.19336-1.06934.19336c-.375,0-.72656-.06348-1.05469-.19043s-.62109-.31348-.87891-.55957c-.29688-.28516-.52637-.63672-.68848-1.05469s-.24316-.85938-.24316-1.32422c0-.44922.06934-.8623.20801-1.23926s.35449-.71582.64746-1.0166c.26172-.27344.56641-.4834.91406-.62988s.71484-.21973,1.10156-.21973c.40625,0,.77441.06738,1.10449.20215s.62402.33691.88184.60645c.29688.30859.51758.65527.66211,1.04004s.2168.80762.2168,1.26855ZM573.54209,179.77249c0-.36719-.05957-.72461-.17871-1.07227s-.30371-.64062-.55371-.87891c-.15234-.14844-.33301-.2627-.54199-.34277s-.42676-.12012-.65332-.12012c-.26953,0-.50391.04297-.70312.12891s-.38672.2207-.5625.4043c-.20703.21094-.37012.48047-.48926.80859s-.17871.66797-.17871,1.01953c0,.39844.06055.76465.18164,1.09863s.31641.62207.58594.86426c.15234.13672.32812.24121.52734.31348s.41016.1084.63281.1084c.24609,0,.47559-.04297.68848-.12891s.39941-.21094.55957-.375c.22266-.22656.39258-.5.50977-.82031s.17578-.65625.17578-1.00781Z"/>
      <path class="cls-1" d="M579.52452,177.45803c-.21484.05078-.54395.1582-.9873.32227s-.9541.38281-1.53223.65625c0,.04297-.00195.23926-.00586.58887s-.00586.6748-.00586.97559c0,.46094.00488,1.00781.01465,1.64062s.01465.98438.01465,1.05469h-.92578c0-.06641.00391-.28516.01172-.65625s.01172-1.00586.01172-1.9043c0-.36328-.00195-.87109-.00586-1.52344s-.00977-1.26758-.01758-1.8457h.9082v.89062l.00586.00586c.44141-.25.87695-.4668,1.30664-.65039s.77344-.30859,1.03125-.375l.17578.82031Z"/>
      <path class="cls-1" d="M583.93663,181.96975l-.10547.74414c-.02734.00391-.09473.00781-.20215.01172s-.2002.00586-.27832.00586c-.80078,0-1.40625-.16699-1.81641-.50098s-.61523-.84668-.61523-1.53809c0-.43359.00293-.89844.00879-1.39453s.00879-1.11133.00879-1.8457h-.98438v-.68555h1.03711v-1.38867h.84961v1.38867h2.09766v.68555h-2.09766c0,.08203-.00293.32617-.00879.73242s-.00879.70703-.00879.90234v1.45312c0,.50781.13672.87402.41016,1.09863s.69531.33691,1.26562.33691c.07031,0,.1543-.00098.25195-.00293s.16016-.00293.1875-.00293Z"/>
      <path class="cls-1" d="M589.98936,179.51467h-4.23633c.00391.41406.0918.79395.26367,1.13965s.43555.63184.79102.8584c.22656.14453.48438.25293.77344.3252s.63672.1084,1.04297.1084c.22266,0,.42676-.00586.6123-.01758s.2998-.01953.34277-.02344l-.10547.7793c-.03125.00391-.13477.01074-.31055.02051s-.38281.01465-.62109.01465c-.625,0-1.16895-.08105-1.63184-.24316s-.84277-.38574-1.13965-.6709c-.25391-.23828-.46973-.54297-.64746-.91406s-.2666-.7832-.2666-1.23633c0-.44531.06641-.84766.19922-1.20703s.33203-.69336.59766-1.00195c.23047-.26562.5166-.4707.8584-.61523s.69629-.2168,1.06348-.2168c.36328,0,.68555.05469.9668.16406s.52539.27539.73242.49805c.23047.25.40625.55762.52734.92285s.18359.80371.1875,1.31543ZM589.08116,178.85842c-.0625-.48438-.22754-.86426-.49512-1.13965s-.62012-.41309-1.05762-.41309-.80273.13965-1.0957.41895-.49609.65723-.60938,1.13379h3.25781Z"/>
      <path class="cls-1" d="M566.99717,197.18411c-.02344,0-.09766.00098-.22266.00293s-.22461.00293-.29883.00293c-.73828,0-1.31641-.03223-1.73438-.09668s-.82617-.19189-1.22461-.3833c-.51953-.25-.91406-.58154-1.18359-.99512s-.4043-.87402-.4043-1.38135c0-.59326.15039-1.11914.45117-1.57764s.73438-.81641,1.30078-1.07422c.33203-.15625.71289-.27393,1.14258-.354s.85156-.12012,1.26562-.12012l-.01758-2.70117h.92578c0,.07812-.00391.62451-.01172,1.63965-.00781,1.01465-.01172,2.04346-.01172,3.08545,0,.82373.00293,1.56836.00879,2.23389.00586.66602.01074,1.23877.01465,1.71875ZM566.08897,193.06936v-1.08252c-.39062,0-.75879.0332-1.10449.09961s-.6416.15576-.8877.26904c-.39062.17969-.69336.43604-.9082.76953s-.32227.72461-.32227,1.17334c0,.40186.10352.74707.31055,1.03564s.46484.51514.77344.67871c.26953.14453.57324.25293.91113.32471.33789.07227.69238.1084,1.06348.1084h.15234c0-.03516.00195-.32666.00586-.875.00391-.54785.00586-1.38184.00586-2.50146Z"/>
      <path class="cls-1" d="M573.71202,193.91458h-4.23633c.00391.41406.0918.79395.26367,1.13965s.43555.63184.79102.8584c.22656.14453.48438.25293.77344.3252s.63672.1084,1.04297.1084c.22266,0,.42676-.00586.6123-.01758s.2998-.01953.34277-.02344l-.10547.7793c-.03125.00391-.13477.01074-.31055.02051s-.38281.01465-.62109.01465c-.625,0-1.16895-.08105-1.63184-.24316s-.84277-.38574-1.13965-.6709c-.25391-.23828-.46973-.54297-.64746-.91406s-.2666-.7832-.2666-1.23633c0-.44531.06641-.84766.19922-1.20703s.33203-.69336.59766-1.00195c.23047-.26562.5166-.4707.8584-.61523s.69629-.2168,1.06348-.2168c.36328,0,.68555.05469.9668.16406s.52539.27539.73242.49805c.23047.25.40625.55762.52734.92285s.18359.80371.1875,1.31543ZM572.80381,193.25833c-.0625-.48438-.22754-.86426-.49512-1.13965s-.62012-.41309-1.05762-.41309-.80273.13965-1.0957.41895-.49609.65723-.60938,1.13379h3.25781Z"/>
      <path class="cls-1" d="M583.35655,197.0845c-.04688,0-.29395-.00195-.74121-.00586s-1.01855-.00586-1.71387-.00586c-.45703,0-.8916.00195-1.30371.00586s-.76074.00586-1.0459.00586c.00781-.67188.01465-1.35254.02051-2.04199s.00879-1.36621.00879-2.03027c0-1.10938-.00391-1.95508-.01172-2.53711s-.01367-.99023-.01758-1.22461h.9668c-.00781.50342-.01367,1.08496-.01758,1.74463s-.00586,1.2002-.00586,1.62158c0,1.02637.00195,1.8833.00586,2.57031s.00586,1.0498.00586,1.08887c.16016,0,.35352.00098.58008.00293s.43164.00293.61523.00293c.69922,0,1.30762-.00293,1.8252-.00879s.79395-.00879.8291-.00879v.82031Z"/>
      <path class="cls-1" d="M588.79991,193.75637c0,.96875-.00195,1.75781-.00586,2.36719s-.00586.9375-.00586.98438c-.03906.00391-.2207.01855-.54492.04395s-.74219.03809-1.25391.03809c-.32031,0-.64258-.0293-.9668-.08789s-.60352-.14258-.83789-.25195c-.3125-.14453-.56543-.3418-.75879-.5918s-.29004-.55078-.29004-.90234c0-.37109.11426-.69238.34277-.96387s.5459-.49121.95215-.65918c.25391-.10547.59277-.2002,1.0166-.28418s.90723-.14746,1.4502-.19043c-.02344-.30469-.09961-.55469-.22852-.75s-.31836-.34375-.56836-.44531c-.17188-.07031-.36328-.12012-.57422-.14941s-.45703-.04395-.73828-.04395c-.17578,0-.3252.00391-.44824.01172s-.29004.01758-.50098.0293l.09375-.7793c.05859-.00391.1748-.01074.34863-.02051s.41113-.01465.71191-.01465c.46094,0,.87207.04785,1.2334.14355s.66113.25098.89941.46582c.22266.20312.39062.4541.50391.75293s.16992.73145.16992,1.29785ZM587.90342,195.16848v-.50391c0-.20312-.00195-.4375-.00586-.70312-.17188.00781-.47266.04199-.90234.10254s-.79102.14746-1.08398.26074c-.21875.08203-.41309.20508-.58301.36914s-.25488.36719-.25488.60938c0,.26562.07227.47949.2168.6416s.3418.28613.5918.37207c.19141.06641.40332.11426.63574.14355s.47754.04395.73535.04395c.07812,0,.17383-.00195.28711-.00586s.23242-.00781.35742-.01172c0-.02734.00098-.15625.00293-.38672s.00293-.54102.00293-.93164Z"/>
      <path class="cls-1" d="M596.10069,194.13137c0,.45312-.08105.88672-.24316,1.30078s-.39551.76758-.7002,1.06055c-.25781.24609-.54395.43359-.8584.5625s-.6709.19336-1.06934.19336c-.375,0-.72656-.06348-1.05469-.19043s-.62109-.31348-.87891-.55957c-.29688-.28516-.52637-.63672-.68848-1.05469s-.24316-.85938-.24316-1.32422c0-.44922.06934-.8623.20801-1.23926s.35449-.71582.64746-1.0166c.26172-.27344.56641-.4834.91406-.62988s.71484-.21973,1.10156-.21973c.40625,0,.77441.06738,1.10449.20215s.62402.33691.88184.60645c.29688.30859.51758.65527.66211,1.04004s.2168.80762.2168,1.26855ZM595.16319,194.17239c0-.36719-.05957-.72461-.17871-1.07227s-.30371-.64062-.55371-.87891c-.15234-.14844-.33301-.2627-.54199-.34277s-.42676-.12012-.65332-.12012c-.26953,0-.50391.04297-.70312.12891s-.38672.2207-.5625.4043c-.20703.21094-.37012.48047-.48926.80859s-.17871.66797-.17871,1.01953c0,.39844.06055.76465.18164,1.09863s.31641.62207.58594.86426c.15234.13672.32812.24121.52734.31348s.41016.1084.63281.1084c.24609,0,.47559-.04297.68848-.12891s.39941-.21094.55957-.375c.22266-.22656.39258-.5.50977-.82031s.17578-.65625.17578-1.00781Z"/>
      <path class="cls-1" d="M602.58116,197.09622h-.92578c.00391-.10938.00879-.4707.01465-1.08398s.00879-.99219.00879-1.13672c0-.20312-.00098-.50293-.00293-.89941s-.00488-.68652-.00879-.87012c-.01172-.44922-.09766-.77148-.25781-.9668s-.4375-.29297-.83203-.29297c-.23828,0-.5332.07031-.88477.21094s-.70703.32031-1.06641.53906c0,.04297-.00195.27539-.00586.69727s-.00586.80664-.00586,1.1543c0,.45312.00488,1,.01465,1.64062s.01465.97656.01465,1.00781h-.92578c0-.02734.00391-.2666.01172-.71777s.01172-1.12207.01172-2.0127c0-.41016-.00098-.89062-.00293-1.44141s-.00879-1.13672-.02051-1.75781h.91406l-.00586.67383.00586.01172c.54688-.3125,1.00293-.53027,1.36816-.65332s.66895-.18457.91113-.18457c.5,0,.90137.15723,1.2041.47168s.4541.74512.4541,1.29199c0,.49219-.00293.91699-.00879,1.27441s-.00879.64746-.00879.87012c0,.35547.00488.7998.01465,1.33301s.01465.81348.01465.84082Z"/>
    </g>
    <text class="cls-2" transform="translate(97.90077 216.68634)"><tspan x="0" y="0">Donjon</tspan></text>
    <text class="cls-2" transform="translate(427.5374 286.39853) rotate(-48.02297)"><tspan x="0" y="0">AMVCC</tspan></text>
    <text class="cls-2" transform="translate(371.93938 313.31873) rotate(-4.70697)"><tspan x="0" y="0">Aroeven</tspan></text>
    <text class="cls-2" transform="translate(500.47728 444.00322) rotate(23.5406)"><tspan x="0" y="0">Eglise</tspan></text>
    <text class="cls-7" transform="translate(150.29037 41.52801)"><tspan x="0" y="0">Vers Chauny</tspan></text>
    <g>
      <path d="M639.36631,12.27395c-.01953.04688-.43262.93799-1.23926,2.67285-.80664,1.73535-1.57715,3.40771-2.31152,5.01758h-.7793c-.80859-1.80518-1.58203-3.51123-2.32031-5.11719s-1.125-2.44824-1.16016-2.52637l.91309-.4541c.02734.07812.37988.8916,1.05762,2.44043s1.33203,3.00684,1.96094,4.37402h.01172c.63965-1.40234,1.30371-2.87891,1.99219-4.42969s1.04395-2.34961,1.06738-2.39648l.80762.41895Z"/>
      <path d="M645.1085,16.66555h-4.23633c.00391.41406.0918.79395.26367,1.13965s.43555.63184.79102.8584c.22656.14453.48438.25293.77344.3252s.63672.1084,1.04297.1084c.22266,0,.42676-.00586.6123-.01758s.2998-.01953.34277-.02344l-.10547.7793c-.03125.00391-.13477.01074-.31055.02051s-.38281.01465-.62109.01465c-.625,0-1.16895-.08105-1.63184-.24316s-.84277-.38574-1.13965-.6709c-.25391-.23828-.46973-.54297-.64746-.91406s-.2666-.7832-.2666-1.23633c0-.44531.06641-.84766.19922-1.20703s.33203-.69336.59766-1.00195c.23047-.26562.5166-.4707.8584-.61523s.69629-.2168,1.06348-.2168c.36328,0,.68555.05469.9668.16406s.52539.27539.73242.49805c.23047.25.40625.55762.52734.92285s.18359.80371.1875,1.31543ZM644.2003,16.0093c-.0625-.48438-.22754-.86426-.49512-1.13965s-.62012-.41309-1.05762-.41309-.80273.13965-1.0957.41895-.49609.65723-.60938,1.13379h3.25781Z"/>
      <path d="M650.08311,14.60891c-.21484.05078-.54395.1582-.9873.32227s-.9541.38281-1.53223.65625c0,.04297-.00195.23926-.00586.58887s-.00586.6748-.00586.97559c0,.46094.00488,1.00781.01465,1.64062s.01465.98438.01465,1.05469h-.92578c0-.06641.00391-.28516.01172-.65625s.01172-1.00586.01172-1.9043c0-.36328-.00195-.87109-.00586-1.52344s-.00977-1.26758-.01758-1.8457h.9082v.89062l.00586.00586c.44141-.25.87695-.4668,1.30664-.65039s.77344-.30859,1.03125-.375l.17578.82031Z"/>
      <path d="M654.50108,18.1304c0,.28906-.07031.54688-.21191.77344-.14062.22656-.32422.41016-.55078.55078-.23926.14844-.52148.26074-.84863.33691-.32617.07617-.6875.11426-1.08301.11426-.19141,0-.38965-.00879-.5957-.02637-.20508-.01758-.32129-.02832-.34863-.03223l-.03516-.76758c.03516.00391.1709.01465.40723.03223s.47168.02637.70605.02637c.13672,0,.3125-.01172.52734-.03516s.39258-.06641.5332-.12891c.19531-.08594.33984-.19141.43359-.31641s.14062-.27539.14062-.45117c0-.16016-.04102-.29004-.12305-.38965s-.19531-.19629-.33984-.29004c-.15625-.10547-.37012-.21777-.6416-.33691s-.49902-.2334-.68262-.34277c-.26172-.16016-.46191-.34961-.60059-.56836s-.20801-.47266-.20801-.76172.0791-.54883.2373-.7793.37109-.41602.63672-.55664c.23145-.125.48633-.20801.7666-.24902.2793-.04102.55078-.06152.8125-.06152.23828,0,.43457.00391.58691.01172s.24121.01172.26465.01172l.06445.7793c-.02734,0-.14844-.00781-.36133-.02344-.21387-.01562-.44727-.02344-.70215-.02344-.17969,0-.35156.01562-.51367.04688s-.30078.07617-.41406.13477c-.16895.08594-.28906.18945-.36133.31055s-.1084.23828-.1084.35156c0,.15625.05078.29102.15234.4043s.22168.20898.3584.28711c.16016.09375.37988.20508.65723.33398.27832.12891.48047.23242.60547.31055.27344.17188.48242.36328.625.57422.14355.21094.21484.46094.21484.75Z"/>
      <path d="M664.25108,19.83547c-.04688,0-.29395-.00195-.74121-.00586s-1.01855-.00586-1.71387-.00586c-.45703,0-.8916.00195-1.30371.00586s-.76074.00586-1.0459.00586c.00781-.67188.01465-1.35254.02051-2.04199s.00879-1.36621.00879-2.03027c0-1.10938-.00391-1.95508-.01172-2.53711s-.01367-.99023-.01758-1.22461h.9668c-.00781.50342-.01367,1.08496-.01758,1.74463s-.00586,1.2002-.00586,1.62158c0,1.02637.00195,1.8833.00586,2.57031s.00586,1.0498.00586,1.08887c.16016,0,.35352.00098.58008.00293s.43164.00293.61523.00293c.69922,0,1.30762-.00293,1.8252-.00879s.79395-.00879.8291-.00879v.82031Z"/>
      <path d="M669.69444,16.50735c0,.96875-.00195,1.75781-.00586,2.36719s-.00586.9375-.00586.98438c-.03906.00391-.2207.01855-.54492.04395s-.74219.03809-1.25391.03809c-.32031,0-.64258-.0293-.9668-.08789s-.60352-.14258-.83789-.25195c-.3125-.14453-.56543-.3418-.75879-.5918s-.29004-.55078-.29004-.90234c0-.37109.11426-.69238.34277-.96387s.5459-.49121.95215-.65918c.25391-.10547.59277-.2002,1.0166-.28418s.90723-.14746,1.4502-.19043c-.02344-.30469-.09961-.55469-.22852-.75s-.31836-.34375-.56836-.44531c-.17188-.07031-.36328-.12012-.57422-.14941s-.45703-.04395-.73828-.04395c-.17578,0-.3252.00391-.44824.01172s-.29004.01758-.50098.0293l.09375-.7793c.05859-.00391.1748-.01074.34863-.02051s.41113-.01465.71191-.01465c.46094,0,.87207.04785,1.2334.14355s.66113.25098.89941.46582c.22266.20312.39062.4541.50391.75293s.16992.73145.16992,1.29785ZM668.79795,17.91946v-.50391c0-.20312-.00195-.4375-.00586-.70312-.17188.00781-.47266.04199-.90234.10254s-.79102.14746-1.08398.26074c-.21875.08203-.41309.20508-.58301.36914s-.25488.36719-.25488.60938c0,.26562.07227.47949.2168.6416s.3418.28613.5918.37207c.19141.06641.40332.11426.63574.14355s.47754.04395.73535.04395c.07812,0,.17383-.00195.28711-.00586s.23242-.00781.35742-.01172c0-.02734.00098-.15625.00293-.38672s.00293-.54102.00293-.93164Z"/>
      <path d="M676.99522,16.88235c0,.45312-.08105.88672-.24316,1.30078s-.39551.76758-.7002,1.06055c-.25781.24609-.54395.43359-.8584.5625s-.6709.19336-1.06934.19336c-.375,0-.72656-.06348-1.05469-.19043s-.62109-.31348-.87891-.55957c-.29688-.28516-.52637-.63672-.68848-1.05469s-.24316-.85938-.24316-1.32422c0-.44922.06934-.8623.20801-1.23926s.35449-.71582.64746-1.0166c.26172-.27344.56641-.4834.91406-.62988s.71484-.21973,1.10156-.21973c.40625,0,.77441.06738,1.10449.20215s.62402.33691.88184.60645c.29688.30859.51758.65527.66211,1.04004s.2168.80762.2168,1.26855ZM676.05772,16.92337c0-.36719-.05957-.72461-.17871-1.07227s-.30371-.64062-.55371-.87891c-.15234-.14844-.33301-.2627-.54199-.34277s-.42676-.12012-.65332-.12012c-.26953,0-.50391.04297-.70312.12891s-.38672.2207-.5625.4043c-.20703.21094-.37012.48047-.48926.80859s-.17871.66797-.17871,1.01953c0,.39844.06055.76465.18164,1.09863s.31641.62207.58594.86426c.15234.13672.32812.24121.52734.31348s.41016.1084.63281.1084c.24609,0,.47559-.04297.68848-.12891s.39941-.21094.55957-.375c.22266-.22656.39258-.5.50977-.82031s.17578-.65625.17578-1.00781Z"/>
      <path d="M683.47569,19.84719h-.92578c.00391-.10938.00879-.4707.01465-1.08398s.00879-.99219.00879-1.13672c0-.20312-.00098-.50293-.00293-.89941s-.00488-.68652-.00879-.87012c-.01172-.44922-.09766-.77148-.25781-.9668s-.4375-.29297-.83203-.29297c-.23828,0-.5332.07031-.88477.21094s-.70703.32031-1.06641.53906c0,.04297-.00195.27539-.00586.69727s-.00586.80664-.00586,1.1543c0,.45312.00488,1,.01465,1.64062s.01465.97656.01465,1.00781h-.92578c0-.02734.00391-.2666.01172-.71777s.01172-1.12207.01172-2.0127c0-.41016-.00098-.89062-.00293-1.44141s-.00879-1.13672-.02051-1.75781h.91406l-.00586.67383.00586.01172c.54688-.3125,1.00293-.53027,1.36816-.65332s.66895-.18457.91113-.18457c.5,0,.90137.15723,1.2041.47168s.4541.74512.4541,1.29199c0,.49219-.00293.91699-.00879,1.27441s-.00879.64746-.00879.87012c0,.35547.00488.7998.01465,1.33301s.01465.81348.01465.84082Z"/>
      <path d="M642.34288,34.12991l-.95508.1875-1.20898-6.57568-.00781-.00879c-.15234.31641-.49121,1.05127-1.01465,2.20459s-1.03418,2.31055-1.53027,3.47119h-.80859c-.46484-1.07422-.97949-2.23584-1.54199-3.48438-.5625-1.24805-.89258-1.97607-.99023-2.18311l-.01172-.00049c-.02344.10156-.18262.84912-.47559,2.24219s-.57324,2.83398-.83887,4.32275l-.89941-.16406c.39062-1.68359.75586-3.35156,1.0957-5.00391s.52539-2.54883.55664-2.68945l.93164-.13477c.03906.08984.31543.71875.8291,1.88672s1.11816,2.51367,1.81348,4.03711h.03516c.53125-1.19531,1.09375-2.46875,1.6875-3.82031s.90234-2.05273.92578-2.10352l.88477.07031c.01172.08594.17383.94238.48633,2.56934s.6582,3.35254,1.03711,5.17676Z"/>
      <path d="M649.15147,31.28225c0,.45312-.08105.88672-.24316,1.30078s-.39551.76758-.7002,1.06055c-.25781.24609-.54395.43359-.8584.5625s-.6709.19336-1.06934.19336c-.375,0-.72656-.06348-1.05469-.19043s-.62109-.31348-.87891-.55957c-.29688-.28516-.52637-.63672-.68848-1.05469s-.24316-.85938-.24316-1.32422c0-.44922.06934-.8623.20801-1.23926s.35449-.71582.64746-1.0166c.26172-.27344.56641-.4834.91406-.62988s.71484-.21973,1.10156-.21973c.40625,0,.77441.06738,1.10449.20215s.62402.33691.88184.60645c.29688.30859.51758.65527.66211,1.04004s.2168.80762.2168,1.26855ZM648.21397,31.32327c0-.36719-.05957-.72461-.17871-1.07227s-.30371-.64062-.55371-.87891c-.15234-.14844-.33301-.2627-.54199-.34277s-.42676-.12012-.65332-.12012c-.26953,0-.50391.04297-.70312.12891s-.38672.2207-.5625.4043c-.20703.21094-.37012.48047-.48926.80859s-.17871.66797-.17871,1.01953c0,.39844.06055.76465.18164,1.09863s.31641.62207.58594.86426c.15234.13672.32812.24121.52734.31348s.41016.1084.63281.1084c.24609,0,.47559-.04297.68848-.12891s.39941-.21094.55957-.375c.22266-.22656.39258-.5.50977-.82031s.17578-.65625.17578-1.00781Z"/>
      <path d="M655.78428,28.55764c-.76172,1.67969-1.56348,3.46387-2.40527,5.35254s-1.29004,2.89355-1.34473,3.01465l-.81055-.29883,1.21191-2.51367c-.03125-.07812-.27637-.64844-.73438-1.71094-.45898-1.0625-1.01758-2.33203-1.67676-3.80859l.87598-.38086c.42969,1.08594.86719,2.15918,1.3125,3.21973s.67969,1.61816.70312,1.67285h.01172c.02344-.03906.24609-.55859.66797-1.55859s.88281-2.10352,1.38281-3.31055l.80566.32227Z"/>
      <path d="M661.76084,31.06546h-4.23633c.00391.41406.0918.79395.26367,1.13965s.43555.63184.79102.8584c.22656.14453.48438.25293.77344.3252s.63672.1084,1.04297.1084c.22266,0,.42676-.00586.6123-.01758s.2998-.01953.34277-.02344l-.10547.7793c-.03125.00391-.13477.01074-.31055.02051s-.38281.01465-.62109.01465c-.625,0-1.16895-.08105-1.63184-.24316s-.84277-.38574-1.13965-.6709c-.25391-.23828-.46973-.54297-.64746-.91406s-.2666-.7832-.2666-1.23633c0-.44531.06641-.84766.19922-1.20703s.33203-.69336.59766-1.00195c.23047-.26562.5166-.4707.8584-.61523s.69629-.2168,1.06348-.2168c.36328,0,.68555.05469.9668.16406s.52539.27539.73242.49805c.23047.25.40625.55762.52734.92285s.18359.80371.1875,1.31543ZM660.85264,30.40921c-.0625-.48438-.22754-.86426-.49512-1.13965s-.62012-.41309-1.05762-.41309-.80273.13965-1.0957.41895-.49609.65723-.60938,1.13379h3.25781Z"/>
      <path d="M671.71006,34.2471h-.92578c.00391-.04297.00879-.31641.01465-.82031s.00879-.97852.00879-1.42383c0-.17578-.00098-.46387-.00293-.86426s-.00488-.7002-.00879-.89941c-.01172-.46875-.10449-.79297-.27832-.97266s-.44238-.26953-.80566-.26953c-.21484,0-.46973.05322-.76465.15967s-.62793.27197-.99902.49658c0,.01953.00098.05859.00293.11719s.00293.13428.00293.22803c0,.31592-.00195.63721-.00586.96289s-.00586.63672-.00586.93311c0,.64795.00488,1.19189.01465,1.63281s.01465.68066.01465.71973h-.92578c0-.04297.00391-.2793.01172-.70898s.01172-.9375.01172-1.52344c0-.19531-.00098-.49121-.00293-.8877s-.00488-.68848-.00879-.87598c-.00391-.17188-.01953-.33594-.04688-.49219s-.07812-.28906-.15234-.39844c-.08203-.12109-.1875-.21191-.31641-.27246s-.3125-.09082-.55078-.09082c-.21875,0-.47461.06396-.76758.19189s-.62891.31201-1.00781.55225c0,.06641-.00195.31494-.00586.74609s-.00586.7832-.00586,1.05615c0,.46436.00488,1.02148.01465,1.6709s.01465.99365.01465,1.03271h-.92578c0-.03125.00391-.25879.01172-.68262s.01172-1.12598.01172-2.10645c0-.32031-.00098-.75195-.00293-1.29492s-.00879-1.1582-.02051-1.8457h.91406l-.00586.67383.00586.00586c.26172-.1875.59082-.37305.9873-.55664s.74707-.27539,1.05176-.27539c.38281,0,.70215.08008.95801.24023s.43848.36328.54785.60938h.01172c.44922-.27734.8623-.48828,1.23926-.63281s.69824-.2168.96387-.2168c.53906,0,.95996.15723,1.2627.47168s.4541.73926.4541,1.27441c0,.41406-.00293.7627-.00879,1.0459s-.00879.58301-.00879.89941c0,.65625.00488,1.21094.01465,1.66406s.01465.69531.01465.72656Z"/>
      <path d="M678.88194,31.23245c0,.64014-.15723,1.19043-.47168,1.65088s-.73926.80371-1.27441,1.03027c-.34766.14844-.74414.25635-1.18945.32471s-.98047.10254-1.60547.10254h-.52148c.00391-.30078.00879-.85889.01465-1.6748s.00879-1.79736.00879-2.94531c0-.70215-.00195-1.38379-.00586-2.04346s-.00977-1.33301-.01758-2.02002h.92578l-.01758,2.70117c.80078.00781,1.44238.0791,1.9248.21387.48242.13428.88379.31689,1.2041.54688.33203.23828.58594.53613.76172.89307s.26367.76367.26367,1.22021ZM677.94444,31.25589c0-.47168-.13379-.86768-.40137-1.1875-.26758-.32031-.6123-.55225-1.03418-.69678-.21875-.07373-.45508-.13135-.70898-.17236s-.51562-.06152-.78516-.06152h-.28711c0,.08594-.00098.39697-.00293.93359-.00195.53613-.00293.97803-.00293,1.3252,0,.65137.00195,1.11182.00586,1.38086.00391.26953.00586.54248.00586.81934.42969,0,.82227-.03223,1.17773-.09668.35547-.06396.66211-.16455.91992-.30127.375-.19873.6543-.46143.83789-.78711s.27539-.71094.27539-1.15576Z"/>
      <path d="M683.8917,29.00881c-.21484.05078-.54395.1582-.9873.32227s-.9541.38281-1.53223.65625c0,.04297-.00195.23926-.00586.58887s-.00586.6748-.00586.97559c0,.46094.00488,1.00781.01465,1.64062s.01465.98438.01465,1.05469h-.92578c0-.06641.00391-.28516.01172-.65625s.01172-1.00586.01172-1.9043c0-.36328-.00195-.87109-.00586-1.52344s-.00977-1.26758-.01758-1.8457h.9082v.89062l.00586.00586c.44141-.25.87695-.4668,1.30664-.65039s.77344-.30859,1.03125-.375l.17578.82031Z"/>
      <path d="M686.12413,27.18069h-1.03125v-1.00781h1.03125v1.00781ZM686.07139,34.2471h-.92578c.00391-.0625.00879-.44727.01465-1.1543s.00879-1.29102.00879-1.75195c0-.40234-.00098-.84473-.00293-1.32715s-.00879-1.04785-.02051-1.69629h.92578c-.00781.5625-.01465,1.08887-.02051,1.5791s-.00879.92676-.00879,1.30957c0,.91016.00488,1.64062.01465,2.19141s.01465.83398.01465.84961Z"/>
      <path d="M692.84483,31.06546h-4.23633c.00391.41406.0918.79395.26367,1.13965s.43555.63184.79102.8584c.22656.14453.48438.25293.77344.3252s.63672.1084,1.04297.1084c.22266,0,.42676-.00586.6123-.01758s.2998-.01953.34277-.02344l-.10547.7793c-.03125.00391-.13477.01074-.31055.02051s-.38281.01465-.62109.01465c-.625,0-1.16895-.08105-1.63184-.24316s-.84277-.38574-1.13965-.6709c-.25391-.23828-.46973-.54297-.64746-.91406s-.2666-.7832-.2666-1.23633c0-.44531.06641-.84766.19922-1.20703s.33203-.69336.59766-1.00195c.23047-.26562.5166-.4707.8584-.61523s.69629-.2168,1.06348-.2168c.36328,0,.68555.05469.9668.16406s.52539.27539.73242.49805c.23047.25.40625.55762.52734.92285s.18359.80371.1875,1.31543ZM691.93663,30.40921c-.0625-.48438-.22754-.86426-.49512-1.13965s-.62012-.41309-1.05762-.41309-.80273.13965-1.0957.41895-.49609.65723-.60938,1.13379h3.25781Z"/>
    </g>
    <g>
      <path d="M404.4835,553.72122c-.01953.04688-.43262.9375-1.23926,2.67285s-1.57715,3.40723-2.31152,5.01758h-.7793c-.80859-1.80566-1.58203-3.51074-2.32031-5.11719s-1.125-2.44824-1.16016-2.52637l.91309-.4541c.02734.07812.37988.8916,1.05859,2.44043.67773,1.54883,1.33105,3.00684,1.95996,4.37402h.01172c.63965-1.40234,1.30371-2.87891,1.99219-4.42969s1.04492-2.34961,1.06836-2.39648l.80664.41895Z"/>
      <path d="M410.22569,558.11282h-4.23633c.00391.41406.0918.79395.26367,1.13965s.43555.63184.79102.8584c.22656.14453.48438.25293.77344.3252s.63672.1084,1.04297.1084c.22266,0,.42676-.00586.6123-.01758s.2998-.01953.34277-.02344l-.10547.7793c-.03125.00391-.13477.01074-.31055.02051s-.38281.01465-.62109.01465c-.625,0-1.16895-.08105-1.63184-.24316s-.84277-.38574-1.13965-.6709c-.25391-.23828-.46973-.54297-.64746-.91406s-.2666-.7832-.2666-1.23633c0-.44531.06641-.84766.19922-1.20703s.33203-.69336.59766-1.00195c.23047-.26562.5166-.4707.8584-.61523s.69629-.2168,1.06348-.2168c.36328,0,.68555.05469.9668.16406s.52539.27539.73242.49805c.23047.25.40625.55762.52734.92285s.18359.80371.1875,1.31543ZM409.31749,557.45657c-.0625-.48438-.22754-.86426-.49512-1.13965s-.62012-.41309-1.05762-.41309-.80273.13965-1.0957.41895-.49609.65723-.60938,1.13379h3.25781Z"/>
      <path d="M415.2003,556.05618c-.21484.05078-.54395.1582-.9873.32227s-.9541.38281-1.53223.65625c0,.04297-.00195.23926-.00586.58887s-.00586.6748-.00586.97559c0,.46094.00488,1.00781.01465,1.64062s.01465.98438.01465,1.05469h-.92578c0-.06641.00391-.28516.01172-.65625s.01172-1.00586.01172-1.9043c0-.36328-.00195-.87109-.00586-1.52344s-.00977-1.26758-.01758-1.8457h.9082v.89062l.00586.00586c.44141-.25.87695-.4668,1.30664-.65039s.77344-.30859,1.03125-.375l.17578.82031Z"/>
      <path d="M419.61827,559.57766c0,.28906-.07031.54688-.21094.77344-.1416.22656-.3252.41016-.55176.55078-.23926.14844-.52148.26074-.84863.33691-.32617.07617-.6875.11426-1.08203.11426-.19238,0-.39062-.00879-.5957-.02637-.20605-.01758-.32227-.02832-.34961-.03223l-.03516-.76758c.03516.00391.1709.01465.40723.03223s.47168.02637.70605.02637c.13672,0,.3125-.01172.52734-.03516s.39258-.06641.5332-.12891c.19531-.08594.33984-.19141.43359-.31641s.14062-.27539.14062-.45117c0-.16016-.04102-.29004-.12305-.38965s-.19531-.19629-.33984-.29004c-.15625-.10547-.37012-.21777-.6416-.33691s-.49902-.2334-.68262-.34277c-.26172-.16016-.46191-.34961-.60059-.56836s-.20801-.47266-.20801-.76172.0791-.54883.2373-.7793c.15918-.23047.37109-.41602.6377-.55664.23047-.125.48535-.20801.76562-.24902.2793-.04102.55078-.06152.8125-.06152.23926,0,.43457.00391.58691.01172.15332.00781.24121.01172.26465.01172l.06445.7793c-.02734,0-.14746-.00781-.36133-.02344-.21289-.01562-.44727-.02344-.70215-.02344-.17969,0-.35156.01562-.51367.04688s-.30078.07617-.41406.13477c-.16797.08594-.28906.18945-.36133.31055s-.1084.23828-.1084.35156c0,.15625.05078.29102.15234.4043.10254.11328.22168.20898.3584.28711.16113.09375.37988.20508.6582.33398.27734.12891.47949.23242.60449.31055.27441.17188.48242.36328.625.57422.14355.21094.21484.46094.21484.75Z"/>
      <path d="M428.49522,559.08547c0,.40234-.09473.75488-.28418,1.05762-.19043.30273-.44531.54785-.76562.73535-.29395.17188-.62988.30176-1.00977.38965-.37891.08789-.7998.13184-1.26074.13184-.25098,0-.50977-.00781-.77734-.02344-.26855-.01562-.42383-.02539-.4668-.0293l-.04688-.84375c.05469.00781.20703.02246.45703.04395s.54492.03223.88477.03223c.20703,0,.47461-.02734.80273-.08203s.58008-.125.75586-.21094c.23047-.11328.40723-.25.53027-.41016s.18457-.36328.18457-.60938c0-.26172-.06152-.4834-.18457-.66504s-.32715-.35645-.6123-.52441c-.18359-.10938-.42188-.23242-.71484-.36914s-.55664-.27734-.79102-.42188c-.39844-.24219-.68262-.50684-.85254-.79395s-.25488-.60645-.25488-.95801c0-.35938.07715-.6709.23145-.93457.15527-.26367.35547-.48926.60156-.67676.25098-.1875.55664-.32812.91797-.42188.3623-.09375.76465-.14062,1.20605-.14062.24316,0,.48828.00684.73633.02051.24902.01367.39062.02246.42578.02637l.08203.84961c-.03516-.00391-.17773-.01758-.42773-.04102s-.55859-.03516-.92578-.03516c-.21875,0-.44434.02441-.67676.07324s-.43652.12402-.6123.22559c-.15625.08984-.28906.21484-.39844.375s-.16406.34766-.16406.5625c0,.19141.05762.37598.17285.55371s.33105.36035.64746.54785c.16016.09766.37207.20996.63574.33691s.52246.26465.77637.41309c.39062.23047.68457.49512.88184.79395s.2959.63965.2959,1.02246Z"/>
      <path d="M435.52647,558.32962c0,.45312-.08105.88672-.24316,1.30078s-.39551.76758-.7002,1.06055c-.25781.24609-.54395.43359-.8584.5625s-.6709.19336-1.06934.19336c-.375,0-.72656-.06348-1.05469-.19043s-.62109-.31348-.87891-.55957c-.29688-.28516-.52637-.63672-.68848-1.05469s-.24316-.85938-.24316-1.32422c0-.44922.06934-.8623.20801-1.23926s.35449-.71582.64746-1.0166c.26172-.27344.56641-.4834.91406-.62988s.71484-.21973,1.10156-.21973c.40625,0,.77441.06738,1.10449.20215s.62402.33691.88184.60645c.29688.30859.51758.65527.66211,1.04004s.2168.80762.2168,1.26855ZM434.58897,558.37063c0-.36719-.05957-.72461-.17871-1.07227s-.30371-.64062-.55371-.87891c-.15234-.14844-.33301-.2627-.54199-.34277s-.42676-.12012-.65332-.12012c-.26953,0-.50391.04297-.70312.12891s-.38672.2207-.5625.4043c-.20703.21094-.37012.48047-.48926.80859s-.17871.66797-.17871,1.01953c0,.39844.06055.76465.18164,1.09863s.31641.62207.58594.86426c.15234.13672.32812.24121.52734.31348s.41016.1084.63281.1084c.24609,0,.47559-.04297.68848-.12891s.39941-.21094.55957-.375c.22266-.22656.39258-.5.50977-.82031s.17578-.65625.17578-1.00781Z"/>
      <path d="M438.18663,554.22805h-1.03125v-1.00781h1.03125v1.00781ZM438.13389,561.29446h-.92578c.00391-.0625.00879-.44727.01465-1.1543s.00879-1.29102.00879-1.75195c0-.40234-.00098-.84473-.00293-1.32715s-.00879-1.04785-.02051-1.69629h.92578c-.00781.5625-.01465,1.08887-.02051,1.5791s-.00879.92676-.00879,1.30957c0,.91016.00488,1.64062.01465,2.19141s.01465.83398.01465.84961Z"/>
      <path d="M443.56553,559.57766c0,.28906-.07031.54688-.21094.77344-.1416.22656-.3252.41016-.55176.55078-.23926.14844-.52148.26074-.84863.33691-.32617.07617-.6875.11426-1.08203.11426-.19238,0-.39062-.00879-.5957-.02637-.20605-.01758-.32227-.02832-.34961-.03223l-.03516-.76758c.03516.00391.1709.01465.40723.03223s.47168.02637.70605.02637c.13672,0,.3125-.01172.52734-.03516s.39258-.06641.5332-.12891c.19531-.08594.33984-.19141.43359-.31641s.14062-.27539.14062-.45117c0-.16016-.04102-.29004-.12305-.38965s-.19531-.19629-.33984-.29004c-.15625-.10547-.37012-.21777-.6416-.33691s-.49902-.2334-.68262-.34277c-.26172-.16016-.46191-.34961-.60059-.56836s-.20801-.47266-.20801-.76172.0791-.54883.2373-.7793c.15918-.23047.37109-.41602.6377-.55664.23047-.125.48535-.20801.76562-.24902.2793-.04102.55078-.06152.8125-.06152.23926,0,.43457.00391.58691.01172.15332.00781.24121.01172.26465.01172l.06445.7793c-.02734,0-.14746-.00781-.36133-.02344-.21289-.01562-.44727-.02344-.70215-.02344-.17969,0-.35156.01562-.51367.04688s-.30078.07617-.41406.13477c-.16797.08594-.28906.18945-.36133.31055s-.1084.23828-.1084.35156c0,.15625.05078.29102.15234.4043.10254.11328.22168.20898.3584.28711.16113.09375.37988.20508.6582.33398.27734.12891.47949.23242.60449.31055.27441.17188.48242.36328.625.57422.14355.21094.21484.46094.21484.75Z"/>
      <path d="M448.44639,559.57766c0,.28906-.07031.54688-.21094.77344-.1416.22656-.3252.41016-.55176.55078-.23926.14844-.52148.26074-.84863.33691-.32617.07617-.6875.11426-1.08203.11426-.19238,0-.39062-.00879-.5957-.02637-.20605-.01758-.32227-.02832-.34961-.03223l-.03516-.76758c.03516.00391.1709.01465.40723.03223s.47168.02637.70605.02637c.13672,0,.3125-.01172.52734-.03516s.39258-.06641.5332-.12891c.19531-.08594.33984-.19141.43359-.31641s.14062-.27539.14062-.45117c0-.16016-.04102-.29004-.12305-.38965s-.19531-.19629-.33984-.29004c-.15625-.10547-.37012-.21777-.6416-.33691s-.49902-.2334-.68262-.34277c-.26172-.16016-.46191-.34961-.60059-.56836s-.20801-.47266-.20801-.76172.0791-.54883.2373-.7793c.15918-.23047.37109-.41602.6377-.55664.23047-.125.48535-.20801.76562-.24902.2793-.04102.55078-.06152.8125-.06152.23926,0,.43457.00391.58691.01172.15332.00781.24121.01172.26465.01172l.06445.7793c-.02734,0-.14746-.00781-.36133-.02344-.21289-.01562-.44727-.02344-.70215-.02344-.17969,0-.35156.01562-.51367.04688s-.30078.07617-.41406.13477c-.16797.08594-.28906.18945-.36133.31055s-.1084.23828-.1084.35156c0,.15625.05078.29102.15234.4043.10254.11328.22168.20898.3584.28711.16113.09375.37988.20508.6582.33398.27734.12891.47949.23242.60449.31055.27441.17188.48242.36328.625.57422.14355.21094.21484.46094.21484.75Z"/>
      <path d="M455.30772,558.32962c0,.45312-.08105.88672-.24316,1.30078s-.39551.76758-.7002,1.06055c-.25781.24609-.54395.43359-.8584.5625s-.6709.19336-1.06934.19336c-.375,0-.72656-.06348-1.05469-.19043s-.62109-.31348-.87891-.55957c-.29688-.28516-.52637-.63672-.68848-1.05469s-.24316-.85938-.24316-1.32422c0-.44922.06934-.8623.20801-1.23926s.35449-.71582.64746-1.0166c.26172-.27344.56641-.4834.91406-.62988s.71484-.21973,1.10156-.21973c.40625,0,.77441.06738,1.10449.20215s.62402.33691.88184.60645c.29688.30859.51758.65527.66211,1.04004s.2168.80762.2168,1.26855ZM454.37022,558.37063c0-.36719-.05957-.72461-.17871-1.07227s-.30371-.64062-.55371-.87891c-.15234-.14844-.33301-.2627-.54199-.34277s-.42676-.12012-.65332-.12012c-.26953,0-.50391.04297-.70312.12891s-.38672.2207-.5625.4043c-.20703.21094-.37012.48047-.48926.80859s-.17871.66797-.17871,1.01953c0,.39844.06055.76465.18164,1.09863s.31641.62207.58594.86426c.15234.13672.32812.24121.52734.31348s.41016.1084.63281.1084c.24609,0,.47559-.04297.68848-.12891s.39941-.21094.55957-.375c.22266-.22656.39258-.5.50977-.82031s.17578-.65625.17578-1.00781Z"/>
      <path d="M461.78819,561.29446h-.92578c.00391-.10938.00879-.4707.01465-1.08398s.00879-.99219.00879-1.13672c0-.20312-.00098-.50293-.00293-.89941s-.00488-.68652-.00879-.87012c-.01172-.44922-.09766-.77148-.25781-.9668s-.4375-.29297-.83203-.29297c-.23828,0-.5332.07031-.88477.21094s-.70703.32031-1.06641.53906c0,.04297-.00195.27539-.00586.69727s-.00586.80664-.00586,1.1543c0,.45312.00488,1,.01465,1.64062s.01465.97656.01465,1.00781h-.92578c0-.02734.00391-.2666.01172-.71777s.01172-1.12207.01172-2.0127c0-.41016-.00098-.89062-.00293-1.44141s-.00879-1.13672-.02051-1.75781h.91406l-.00586.67383.00586.01172c.54688-.3125,1.00293-.53027,1.36816-.65332s.66895-.18457.91113-.18457c.5,0,.90137.15723,1.2041.47168s.4541.74512.4541,1.29199c0,.49219-.00293.91699-.00879,1.27441s-.00879.64746-.00879.87012c0,.35547.00488.7998.01465,1.33301s.01465.81348.01465.84082Z"/>
      <path d="M403.55186,573.38626c0,.39062-.10059.74219-.30176,1.05469-.2002.3125-.49219.56836-.875.76758-.33887.17578-.71191.30371-1.11816.38379-.40527.08008-.87012.12012-1.39258.12012-.38672,0-.7832-.00684-1.19141-.02051-.40723-.01367-.63477-.02246-.68164-.02637.01172-.75.01953-1.45801.02344-2.12402s.00586-1.30176.00586-1.90723c0-1.14844-.00488-2.05762-.01465-2.72754s-.01465-1.01855-.01465-1.0459c.05469-.00391.27051-.01367.64648-.0293.37695-.01562.74219-.02344,1.09766-.02344.40137,0,.77246.02637,1.11133.0791.33984.05273.62695.12598.86035.21973.35547.14062.63477.34277.83691.60645.20312.26367.30469.58691.30469.96973,0,.40234-.12695.75879-.38184,1.06934s-.5459.52246-.87207.63574v.05859c.26855.02344.5293.08691.7832.19043.25293.10352.47461.25098.66602.44238.16699.16797.29395.35352.37891.55664.08594.20312.12891.45312.12891.75ZM402.55577,573.41555c0-.19922-.03516-.37793-.10547-.53613s-.17578-.30957-.31641-.4541c-.13281-.13281-.31543-.24023-.54785-.32227s-.48535-.12305-.75879-.12305c-.21875,0-.39551.00195-.53027.00586s-.22363.00586-.2666.00586l-.09375-.70312c.28906-.00781.54395-.04199.76465-.10254s.41699-.15137.58887-.27246c.16406-.11719.29883-.2666.4043-.44824s.1582-.38574.1582-.6123c0-.23828-.05859-.44434-.17578-.61816-.11621-.17383-.27637-.31152-.47949-.41309-.1709-.08203-.38184-.14355-.63086-.18457-.25-.04102-.5166-.06152-.80176-.06152-.18262,0-.35156.00293-.50586.00879-.15332.00586-.25195.00879-.29492.00879-.01172.57031-.01855,1.17578-.02051,1.81641s-.00293,1.10547-.00293,1.39453c0,.67188.00293,1.34668.00879,2.02441s.00879,1.04004.00879,1.08691c.07812.00391.18262.00879.3125.01465.13086.00586.25684.00879.37793.00879.44824,0,.86426-.02344,1.24902-.07031.38379-.04688.70898-.14453.97363-.29297.21875-.12109.38672-.2793.50586-.47461s.17871-.42383.17871-.68555Z"/>
      <path d="M409.93272,572.51321h-4.23633c.00391.41406.0918.79395.26367,1.13965s.43555.63184.79102.8584c.22656.14453.48438.25293.77344.3252s.63672.1084,1.04297.1084c.22266,0,.42676-.00586.6123-.01758s.2998-.01953.34277-.02344l-.10547.7793c-.03125.00391-.13477.01074-.31055.02051s-.38281.01465-.62109.01465c-.625,0-1.16895-.08105-1.63184-.24316s-.84277-.38574-1.13965-.6709c-.25391-.23828-.46973-.54297-.64746-.91406s-.2666-.7832-.2666-1.23633c0-.44531.06641-.84766.19922-1.20703s.33203-.69336.59766-1.00195c.23047-.26562.5166-.4707.8584-.61523s.69629-.2168,1.06348-.2168c.36328,0,.68555.05469.9668.16406s.52539.27539.73242.49805c.23047.25.40625.55762.52734.92285s.18359.80371.1875,1.31543ZM409.02452,571.85696c-.0625-.48438-.22754-.86426-.49512-1.13965s-.62012-.41309-1.05762-.41309-.80273.13965-1.0957.41895-.49609.65723-.60938,1.13379h3.25781Z"/>
      <path d="M414.90733,570.45657c-.21484.05078-.54395.1582-.9873.32227s-.9541.38281-1.53223.65625c0,.04297-.00195.23926-.00586.58887s-.00586.6748-.00586.97559c0,.46094.00488,1.00781.01465,1.64062s.01465.98438.01465,1.05469h-.92578c0-.06641.00391-.28516.01172-.65625s.01172-1.00586.01172-1.9043c0-.36328-.00195-.87109-.00586-1.52344s-.00977-1.26758-.01758-1.8457h.9082v.89062l.00586.00586c.44141-.25.87695-.4668,1.30664-.65039s.77344-.30859,1.03125-.375l.17578.82031Z"/>
      <path d="M420.36241,575.65969c-.01953,0-.34863-.00098-.9873-.00293s-1.11035-.00293-1.41504-.00293c-.39062,0-.8623.00098-1.41504.00293s-.84277.00293-.87012.00293l-.19336-.55078c.38672-.49609.90332-1.16113,1.54883-1.99512.64648-.83398,1.30371-1.68652,1.97168-2.55762l-.00586-.01172c-.16797,0-.33887-.00098-.5127-.00293s-.34082-.00293-.50098-.00293c-.375,0-.85254.00293-1.43164.00879-.58008.00586-.88574.00879-.91699.00879v-.73242c.03516,0,.35352.00098.95508.00293s.9707.00293,1.10742.00293c.27344,0,.69824-.00098,1.27441-.00293s.88965-.00293.94043-.00293l.29883.55078c-.66797.83203-1.38672,1.75293-2.15723,2.7627-.76953,1.00977-1.2207,1.59863-1.35352,1.7666l.00586.01172c.14844,0,.34277.00098.58301.00293s.49902.00293.77637.00293c.79004,0,1.36426-.00293,1.72363-.00879s.55078-.00879.57422-.00879v.75586Z"/>
      <path d="M426.83702,570.0054c-.76172,1.67969-1.56348,3.46387-2.40527,5.35254s-1.29004,2.89355-1.34473,3.01465l-.80957-.29883,1.21094-2.51367c-.03125-.07812-.27539-.64844-.73438-1.71094-.45801-1.0625-1.01758-2.33203-1.67676-3.80859l.87598-.38086c.42969,1.08594.86719,2.15918,1.3125,3.21973s.67969,1.61816.70312,1.67285h.01172c.02344-.03906.24609-.55859.66797-1.55859s.88281-2.10352,1.38281-3.31055l.80566.32227Z"/>
    </g>
    <g>
      <path class="cls-1" d="M437.94737,469.19387c.50781-.05176,1.17188-.08105,2.00879-.02734,1.03027.06641,1.76758.35352,2.21973.81543.41797.41113.64453,1.01465.59863,1.73242-.04688.73047-.2998,1.29004-.7334,1.68359-.58789.55078-1.50488.79297-2.52148.72754-.31152-.01953-.59961-.0498-.83398-.125l-.20605,3.23145-1.04199-.06641.50977-7.97168ZM438.74034,473.1509c.22266.07422.50879.11621.85547.13867,1.25684.08008,2.0625-.48145,2.13379-1.59375.06836-1.06543-.65332-1.62891-1.80176-1.70215-.45508-.0293-.80469-.01465-.9873.02148l-.2002,3.13574Z"/>
      <path class="cls-1" d="M448.90342,474.9429c-.13672,2.14258-1.68066,2.98047-3.08105,2.8916-1.56738-.10059-2.70312-1.32715-2.58594-3.1582.12402-1.93848,1.46582-2.99512,3.06934-2.89258,1.66406.10645,2.71191,1.3877,2.59766,3.15918ZM444.30479,474.70852c-.08203,1.26855.58691,2.27246,1.61621,2.33887,1.00586.06445,1.82031-.83301,1.90332-2.1377.0625-.98145-.34766-2.25781-1.59277-2.33691-1.24512-.08008-1.85645,1.03418-1.92676,2.13574Z"/>
      <path class="cls-1" d="M450.30381,473.98684c.04297-.68262.06836-1.26953.06641-1.81055l.92188.05957-.03613,1.13867.04785.00293c.3125-.76074.97852-1.21094,1.68457-1.16602.12012.00781.20312.02441.29688.05469l-.06348.99414c-.10645-.03125-.21289-.0498-.35742-.05957-.74121-.04688-1.30371.48242-1.49902,1.2627-.03223.14258-.06738.30762-.0791.4873l-.19727,3.08887-1.04004-.06738.25488-3.98535Z"/>
      <path class="cls-1" d="M455.9962,470.86575l-.10645,1.66406,1.50879.09668-.05078.80078-1.50879-.09668-.2002,3.12402c-.0459.71875.13184,1.13867.71777,1.17676.27539.01758.48145-.00586.61523-.0332l-.00293.79297c-.20703.07031-.53516.11035-.94238.08398-.49023-.03125-.875-.21191-1.1084-.51562-.2793-.33105-.35449-.85254-.31055-1.53418l.20215-3.16016-.89746-.05762.05078-.80078.89746.05664.08887-1.3877,1.04688-.20996Z"/>
      <path class="cls-1" d="M458.90245,475.82278c-.06738,1.42578.80469,2.07031,1.8584,2.1377.75488.04785,1.21777-.05469,1.62402-.19629l.13086.76562c-.38281.14355-1.02832.29492-1.94922.23535-1.78418-.11328-2.77441-1.35449-2.66309-3.10254.1123-1.74707,1.22949-3.05762,2.91797-2.9502,1.89062.12109,2.28711,1.81738,2.21875,2.88281-.01367.21484-.04883.38086-.06738.48828l-4.07031-.26074ZM462.03917,475.26614c.05469-.66895-.16602-1.72949-1.35059-1.80469-1.06543-.06836-1.59473.88281-1.72559,1.60742l3.07617.19727Z"/>
      <path class="cls-1" d="M472.22764,470.85891l-.44727,7.00195c-.0332.51465-.05957,1.10156-.04785,1.49902l-.94531-.06055.01562-1.00879-.02441-.00098c-.36328.625-1.10156,1.07031-2.04688,1.01074-1.40039-.08984-2.40039-1.34375-2.28809-3.10352.11035-1.92773,1.38379-3.03613,2.7959-2.94531.88574.05664,1.45703.51367,1.69141.99707l.02246.00195.2207-3.45898,1.05371.06738ZM470.85069,475.85403c.00781-.13184.00879-.31152-.01855-.44531-.1123-.68066-.65234-1.26855-1.44238-1.31836-1.08887-.07031-1.79688.84668-1.87891,2.12793-.0752,1.17188.4375,2.17871,1.5752,2.25098.70605.04492,1.38184-.37988,1.62402-1.1582.04492-.1416.06543-.28418.07617-.45117l.06445-1.00586Z"/>
      <path class="cls-1" d="M474.19444,476.8013c-.06738,1.42578.80469,2.07031,1.8584,2.1377.75488.04785,1.21777-.05469,1.62402-.19629l.12988.76562c-.38184.14355-1.02734.29492-1.94824.23535-1.78418-.11426-2.77441-1.35449-2.66309-3.10254.1123-1.74707,1.22949-3.05762,2.91797-2.9502,1.89062.12109,2.28711,1.81641,2.21875,2.88281-.01367.21484-.04883.38086-.06738.48828l-4.07031-.26074ZM477.33116,476.24465c.05469-.66895-.16699-1.72949-1.35059-1.80469-1.06543-.06836-1.59473.88281-1.72559,1.60742l3.07617.19727Z"/>
      <path class="cls-1" d="M436.45518,490.25833c.44824.31738,1.11621.60059,1.83398.64648,1.06543.06738,1.72461-.45508,1.77637-1.26953.04785-.75391-.35645-1.21191-1.41797-1.7002-1.28613-.55176-2.05762-1.28516-1.98438-2.42188.08008-1.25781,1.18066-2.12402,2.74902-2.02441.8252.05371,1.41309.2832,1.75781.50879l-.34082.83203c-.25488-.16113-.77734-.43457-1.50781-.48145-1.10156-.07031-1.5625.56055-1.59766,1.11133-.04883.75391.41895,1.15723,1.50488,1.65918,1.33008.61328,1.9834,1.31641,1.90723,2.50098-.0791,1.24512-1.07031,2.26367-2.97363,2.1416-.77832-.0498-1.61328-.33105-2.02539-.64648l.31836-.85645Z"/>
      <path class="cls-1" d="M447.88975,489.30715c-.13672,2.14258-1.68164,2.98145-3.08203,2.8916-1.56836-.10059-2.70312-1.32715-2.58594-3.1582.12402-1.93945,1.46484-2.99414,3.06836-2.8916,1.66406.10645,2.71289,1.38672,2.59961,3.1582ZM443.28917,489.07278c-.08105,1.26855.58789,2.27246,1.61621,2.33887,1.00586.06445,1.82031-.83301,1.9043-2.1377.0625-.98145-.34863-2.25684-1.59375-2.33691s-1.85645,1.03516-1.92676,2.13574Z"/>
      <path class="cls-1" d="M449.03331,492.33645l.37109-5.79199,1.05273.06738-.37109,5.79199-1.05273-.06738ZM450.67979,484.99075c-.01074.36035-.29199.63086-.71094.60449-.37109-.02441-.61621-.3291-.59375-.68848.02441-.37012.31738-.63965.70117-.61523.39453.02441.62793.32812.60352.69922Z"/>
      <path class="cls-1" d="M451.75987,491.42922c.29785.22363.83398.47461,1.36133.50781.7666.04883,1.14941-.31055,1.18066-.78906.03223-.50293-.24902-.79785-1.00977-1.13477-1.01758-.4375-1.47168-1.04395-1.42676-1.73828.05957-.93262.86328-1.65039,2.10742-1.57129.58691.03809,1.09082.23828,1.40137.4502l-.31152.74902c-.21875-.15723-.62598-.37598-1.16504-.41016-.62109-.04004-.99121.29688-1.01855.72754-.03125.47852.30273.7168,1.03711,1.05176.98145.44727,1.46387.9834,1.40918,1.84473-.06543,1.01758-.90137,1.68555-2.27832,1.59766-.63379-.04102-1.20996-.23438-1.60156-.5l.31445-.78516Z"/>
      <path class="cls-1" d="M456.50206,491.73294c.29785.22363.83398.47363,1.36133.50781.7666.04883,1.14941-.31055,1.18066-.78906.03223-.50293-.24902-.79785-1.00977-1.13574-1.01758-.43652-1.47168-1.04297-1.42676-1.7373.05957-.93262.86328-1.65039,2.10742-1.57129.58691.03809,1.09082.2373,1.40137.4502l-.31152.74902c-.21875-.1582-.62598-.37598-1.16504-.41016-.62109-.04004-.99121.29688-1.01855.72754-.03125.47852.30273.71582,1.03711,1.05176.98145.44727,1.46387.9834,1.40918,1.84473-.06543,1.01758-.90039,1.68457-2.27832,1.59668-.63379-.04004-1.20996-.2334-1.60156-.49902l.31445-.78516Z"/>
      <path class="cls-1" d="M466.7501,490.51419c-.13672,2.1416-1.68164,2.98047-3.08203,2.8916-1.56836-.10059-2.70215-1.32715-2.58496-3.1582.12402-1.93945,1.46484-2.99512,3.06836-2.89258,1.66309.10645,2.71191,1.38672,2.59863,3.15918ZM462.15049,490.27883c-.08105,1.26953.58691,2.27344,1.61621,2.33984,1.00586.06445,1.81934-.83301,1.90332-2.1377.0625-.98145-.34863-2.25781-1.59277-2.33691-1.24512-.08008-1.85645,1.03418-1.92676,2.13477Z"/>
      <path class="cls-1" d="M468.16417,489.3179c.03809-.59766.05664-1.08984.05176-1.57031l.93359.05957-.00098.96191.02344.00098c.32324-.53223,1.02734-1.02832,1.98438-.9668.80273.05176,2.0166.60938,1.88965,2.59668l-.22168,3.45898-1.05273-.06738.21387-3.33984c.05957-.93359-.23828-1.73242-1.23145-1.7959-.69434-.04492-1.26367.41113-1.48145.98535-.05566.12891-.0918.30762-.10352.48633l-.22266,3.4834-1.05273-.06738.27051-4.22559Z"/>
    </g>
  </g>
</svg>